<?xml version="1.0" standalone="no"?>
<!DOCTYPE svg PUBLIC "-//W3C//DTD SVG 20010904//EN"
 "http://www.w3.org/TR/2001/REC-SVG-20010904/DTD/svg10.dtd">
<svg version="1.0" xmlns="http://www.w3.org/2000/svg"
 width="700.000000pt" height="700.000000pt" viewBox="0 0 700.000000 700.000000"
 preserveAspectRatio="xMidYMid meet">
<metadata>
Created by potrace 1.14, written by Peter Selinger 2001-2017
</metadata>
<g transform="translate(0.000000,700.000000) scale(0.100000,-0.100000)"
fill="#000000" stroke="none">
<path d="M3430 6964 c-61 -34 -160 -106 -224 -163 -56 -51 -145 -171 -180
-244 -51 -106 -68 -176 -72 -302 -9 -258 98 -474 323 -655 74 -59 211 -146
219 -137 2 2 3 349 2 770 l-3 766 -65 -35z"/>
<path d="M3345 4794 c-298 -39 -543 -156 -751 -359 -384 -376 -500 -915 -304
-1422 35 -92 121 -241 183 -318 219 -273 548 -456 882 -491 299 -32 584 33
832 189 117 73 133 86 243 197 316 316 445 790 335 1225 -89 354 -319 653
-635 827 -236 131 -523 186 -785 152z"/>
<path d="M6045 4025 c-172 -44 -324 -148 -452 -309 -48 -62 -133 -195 -133
-210 0 -3 347 -6 771 -6 l770 0 -28 53 c-15 28 -31 54 -35 55 -5 2 -8 8 -8 14
0 17 -99 139 -164 202 -200 195 -461 268 -721 201z"/>
<path d="M24 3453 c39 -77 124 -191 195 -263 269 -273 655 -317 966 -112 93
62 208 179 276 283 56 84 79 123 79 133 0 3 -347 6 -770 6 l-770 0 24 -47z"/>
<path d="M3500 769 l0 -771 67 37 c217 119 379 304 450 514 35 103 41 279 13
392 -56 229 -229 437 -477 576 -23 12 -44 23 -47 23 -3 0 -6 -347 -6 -771z"/>
</g>
</svg>
